<?xml version="1.0" encoding="UTF-8"?>
<svg width="36px" height="32px" viewBox="0 0 36 32" version="1.1" xmlns="http://www.w3.org/2000/svg" xmlns:xlink="http://www.w3.org/1999/xlink">
    <!-- Generator: Sketch 46.2 (44496) - http://www.bohemiancoding.com/sketch -->
    <title>Fill 116</title>
    <desc>Created with Sketch.</desc>
    <defs>
        <linearGradient x1="50%" y1="0%" x2="50%" y2="100%" id="linearGradient-1">
            <stop stop-color="#4BC3FD" offset="0%"></stop>
            <stop stop-color="#B224FA" offset="100%"></stop>
        </linearGradient>
    </defs>
    <g id="Page-1" stroke="none" stroke-width="1" fill="none" fill-rule="evenodd">
        <g id="iPhone-8" transform="translate(-41.000000, -41.000000)" fill="url(#linearGradient-1)">
            <g id="Group" transform="translate(41.000000, 34.000000)">
                <path d="M35.6312065,20.4919722 L33.574805,20.4919722 C32.480831,12.8667593 25.9405974,7 18.0129394,7 C11.8864597,7 6.59086056,10.5079128 3.98915858,15.6168729 L8.21102156,17.2404069 C10.1381249,13.8156946 13.8023197,11.4973241 18.0129394,11.4973241 C23.4524529,11.4973241 27.9891285,15.3605255 29.0302591,20.4919722 L26.3206213,20.4919722 C25.9720787,20.8303959 25.6392767,21.0383971 26.1384797,21.6241736 L30.3322344,25.8898855 C30.680777,26.2271848 31.2440668,26.2271848 31.5903608,25.8898855 L35.8133481,21.6241736 C36.1607664,21.2857499 35.9786248,20.8303959 35.6312065,20.4919722 L35.6312065,20.4919722 Z M18.0129394,33.9839445 C12.9781851,33.9839445 8.71809485,30.6750383 7.28569713,26.1136273 L9.7457334,26.1136273 C10.094276,25.776328 10.2752933,25.3198496 9.92899936,24.9825503 L5.70601205,20.7157141 C5.35859376,20.3784148 4.79530392,20.3784148 4.44788564,20.7157141 L0.253006599,24.9825503 C-0.245072043,25.5683268 0.0877299392,25.776328 0.435148224,26.1136273 L2.49604698,26.1136273 C3.71594614,32.7842833 10.1887198,38.4812686 18.0129394,38.4812686 C23.7391573,38.4812686 28.7356843,35.4129692 31.4902953,30.8414393 L27.2347024,29.1616887 C25.2041606,32.0748304 21.8322919,33.9839445 18.0129394,33.9839445 L18.0129394,33.9839445 Z" id="Fill-116"></path>
            </g>
        </g>
    </g>
</svg>