<?xml version="1.0" encoding="UTF-8"?>
<svg width="32px" height="33px" viewBox="0 0 32 33" version="1.1" xmlns="http://www.w3.org/2000/svg" xmlns:xlink="http://www.w3.org/1999/xlink">
    <!-- Generator: Sketch 46.2 (44496) - http://www.bohemiancoding.com/sketch -->
    <title>Fill 11</title>
    <desc>Created with Sketch.</desc>
    <defs>
        <linearGradient x1="50%" y1="0%" x2="50%" y2="100%" id="linearGradient-1">
            <stop stop-color="#5939E4" offset="0%"></stop>
            <stop stop-color="#B224FA" offset="100%"></stop>
        </linearGradient>
        <path d="M324.710388,347.34469 C324.24373,346.885103 323.487179,346.885103 323.020522,347.34469 C322.75184,347.615729 322.656387,347.969257 322.696454,348.322785 L322.696454,355.275511 C312.92375,355.275511 305,363.194547 305,372.963716 C305,375.473768 305.527936,377.854192 306.468321,380.0225 C307.864759,372.64554 314.898796,367.048007 322.676421,367.048007 L322.676421,374.118575 C322.635176,374.46032 322.753019,374.696005 323.020522,374.955259 C323.535495,375.473768 324.338004,375.261651 324.775201,374.884554 L336.481705,362.051472 C336.730354,361.804002 336.836412,361.474043 336.819914,361.155867 C336.836412,360.825907 336.730354,360.507732 336.481705,360.260262 L324.710388,347.34469 Z" id="path-2"></path>
    </defs>
    <g id="Page-1" stroke="none" stroke-width="1" fill="none" fill-rule="evenodd">
        <g id="iPhone-8" transform="translate(-305.000000, -347.000000)">
            <g id="Fill-11">
                <use fill="url(#linearGradient-1)" xlink:href="#path-2"></use>
                <use fill="#000000" xlink:href="#path-2"></use>
            </g>
        </g>
    </g>
</svg>