<?xml version="1.0" encoding="UTF-8"?>
<svg width="36px" height="36px" viewBox="0 0 36 36" version="1.1" xmlns="http://www.w3.org/2000/svg" xmlns:xlink="http://www.w3.org/1999/xlink">
    <!-- Generator: Sketch 46.2 (44496) - http://www.bohemiancoding.com/sketch -->
    <title>Fill 213</title>
    <desc>Created with Sketch.</desc>
    <defs>
        <linearGradient x1="50%" y1="0%" x2="50%" y2="100%" id="linearGradient-1">
            <stop stop-color="#4BC3FD" offset="0%"></stop>
            <stop stop-color="#B224FA" offset="100%"></stop>
        </linearGradient>
    </defs>
    <g id="Page-1" stroke="none" stroke-width="1" fill="none" fill-rule="evenodd">
        <g id="iPhone-8" transform="translate(-309.000000, -36.000000)" fill="url(#linearGradient-1)">
            <g id="Group" transform="translate(41.000000, 34.000000)">
                <path d="M303.310569,6.60782905 L299.36068,2.6545659 C298.486801,1.78181137 297.073073,1.78181137 296.200319,2.6545659 L292.348277,6.50885688 L295.508638,6.50885688 L296.989847,5.02764847 C297.426224,4.59014652 298.13365,4.59014652 298.571152,5.02764847 L300.94086,7.39848168 C301.377238,7.83598363 301.377238,8.54340967 300.94086,8.97978693 L299.491143,10.4306289 L299.491143,13.5921147 L303.310569,9.76931488 C304.183323,8.89768503 304.183323,7.48058359 303.310569,6.60782905 L303.310569,6.60782905 Z M280.398513,21.6291043 C280.81802,22.0486113 282.868318,24.1000344 284.348402,25.5823675 L296.989847,12.9330501 L293.01184,9.00790403 L280.398513,21.6291043 L280.398513,21.6291043 Z M275.550002,29.6447249 C275.293574,30.15983 275.788435,30.6906807 276.338405,30.4342529 L282.380206,26.7756568 L279.207473,23.5984254 L275.550002,29.6447249 L275.550002,29.6447249 Z M284.771283,27.7361367 L274.98766,32.5756506 C273.88547,33.0873817 273.003718,32.0999094 273.409729,30.9965947 L278.245868,21.2062232 C278.329095,20.7844669 278.491049,20.375082 278.818332,20.0477991 L292.348277,6.50885688 L271.149114,6.50885688 C269.410353,6.50885688 268,7.91921022 268,9.6579712 L268,34.8508857 C268,36.5896467 269.410353,38 271.149114,38 L296.342029,38 C298.08079,38 299.491143,36.5896467 299.491143,34.8508857 L299.491143,13.5921147 L285.928583,27.1636727 C285.602424,27.489831 285.193039,27.6540348 284.771283,27.7361367 L284.771283,27.7361367 Z M298.571152,11.3517448 L299.491143,10.4306289 L299.491143,9.6579712 C299.491143,7.91921022 298.08079,6.50885688 296.342029,6.50885688 L295.508638,6.50885688 L294.676372,7.34112281 L298.571152,11.3517448 L298.571152,11.3517448 Z" id="Fill-213"></path>
            </g>
        </g>
    </g>
</svg>